<?xml version="1.0" encoding="UTF-8" standalone="no"?>
<svg
   xmlns:dc="http://purl.org/dc/elements/1.1/"
   xmlns:cc="http://creativecommons.org/ns#"
   xmlns:rdf="http://www.w3.org/1999/02/22-rdf-syntax-ns#"
   xmlns:svg="http://www.w3.org/2000/svg"
   xmlns="http://www.w3.org/2000/svg"
   version="1.1"
   id="svg2"
   viewBox="0 0 64.000001 64.000001"
   width="64"
   height="64">
  <defs
     id="defs8">
    <filter
       height="1.1805191"
       y="-0.090259529"
       width="1.165714"
       x="-0.082857005"
       id="filter3788"
       style="color-interpolation-filters:sRGB">
      <feGaussianBlur
         id="feGaussianBlur3790"
         stdDeviation="0.75266507" />
    </filter>
  </defs>
  <metadata
     id="metadata4">
    <rdf:RDF>
      <cc:Work
         rdf:about="">
        <dc:format>image/svg+xml</dc:format>
        <dc:type
           rdf:resource="http://purl.org/dc/dcmitype/StillImage" />
        <dc:title></dc:title>
      </cc:Work>
    </rdf:RDF>
  </metadata>
  <circle
     r="32"
     cy="32"
     cx="32"
     id="path3201"
     style="opacity:1;fill:#0676b6;fill-opacity:1;stroke:none;stroke-width:3;stroke-linecap:round;stroke-linejoin:round;stroke-miterlimit:4;stroke-dasharray:none;stroke-dashoffset:0;stroke-opacity:1" />
  <path
     id="path3210"
     d="M 32 6 C 25.724521 6 21.250542 8.6450171 18.445312 12.087891 C 15.640083 15.530763 14.441406 19.708809 14.441406 23 C 14.441406 29.543621 19.403811 37.120874 21.617188 39.734375 C 22.148743 40.362023 22.611784 41.97157 22.804688 43.509766 C 22.997591 45.047961 23 46.500073 23 47 C 23 47.833333 23.385834 48.549896 23.917969 49.082031 C 24.221121 49.385184 24.589646 49.629067 25 49.792969 L 25 51.794922 L 35.691406 49.791016 L 39.003906 49.791016 C 39.412617 49.627129 39.779888 49.384175 40.082031 49.082031 C 40.614166 48.549896 41 47.833333 41 47 C 41 46.500073 41.002401 45.047961 41.195312 43.509766 C 41.388216 41.97157 41.851259 40.362023 42.382812 39.734375 C 44.596188 37.120874 49.558594 29.543621 49.558594 23 C 49.558594 19.708809 48.359915 15.530763 45.554688 12.087891 C 42.749457 8.6450171 38.275479 6 32 6 z M 32 8 C 37.724521 8 41.529838 10.315126 44.003906 13.351562 C 46.477974 16.387999 47.558594 20.208428 47.558594 23 C 47.558594 28.456379 42.735826 36.221125 40.855469 38.441406 C 39.768103 39.725342 39.422874 41.571756 39.210938 43.261719 C 38.999001 44.951682 39 46.499927 39 47 C 39 47.166667 38.885834 47.450104 38.667969 47.667969 C 38.450104 47.885834 38.166667 48 38 48 L 32 48 L 26 48 C 25.833333 48 25.549896 47.885834 25.332031 47.667969 C 25.114166 47.450104 25 47.166667 25 47 C 25 46.499927 25.001 44.951682 24.789062 43.261719 C 24.577126 41.571756 24.231897 39.725342 23.144531 38.441406 C 21.264174 36.221125 16.441406 28.456379 16.441406 23 C 16.441406 20.208428 17.522026 16.387999 19.996094 13.351562 C 22.470162 10.315126 26.275479 8 32 8 z M 39 51.205078 L 25 53.830078 L 25 55.794922 L 39 53.169922 L 39 51.205078 z M 39 55.205078 L 26.5625 57.537109 C 27.189184 57.653918 27.859997 57.716007 28.292969 58.060547 C 29.075455 58.683215 28.5 59.5 29 60 C 29.5 60.5 30 61 32 61 C 34 61 34.5 60.5 35 60 C 35.5 59.5 34.924545 58.683215 35.707031 58.060547 C 36.707031 57.264791 39 58 39 56 L 39 55.205078 z "
     style="color:#000000;font-style:normal;font-variant:normal;font-weight:normal;font-stretch:normal;font-size:medium;line-height:normal;font-family:sans-serif;text-indent:0;text-align:start;text-decoration:none;text-decoration-line:none;text-decoration-style:solid;text-decoration-color:#000000;letter-spacing:normal;word-spacing:normal;text-transform:none;direction:ltr;block-progression:tb;writing-mode:lr-tb;baseline-shift:baseline;text-anchor:start;white-space:normal;clip-rule:nonzero;display:inline;overflow:visible;visibility:visible;opacity:1;isolation:auto;mix-blend-mode:normal;color-interpolation:sRGB;color-interpolation-filters:linearRGB;solid-color:#000000;solid-opacity:1;fill:#f9f9f9;fill-opacity:1;fill-rule:evenodd;stroke:none;stroke-width:2;stroke-linecap:butt;stroke-linejoin:miter;stroke-miterlimit:4;stroke-dasharray:none;stroke-dashoffset:0;stroke-opacity:1;color-rendering:auto;image-rendering:auto;shape-rendering:auto;text-rendering:auto;enable-background:accumulate" />
  <path
     id="path3272"
     d="m 32,16.5 c -0.527778,0 -0.999095,0.276546 -1.296875,0.671875 -0.29778,0.395329 -0.467817,0.893306 -0.570313,1.457031 -0.204991,1.127451 -0.13287,2.542647 0.125,3.960938 0.236107,1.298583 0.66829,2.546345 1.19336,3.599609 -0.23276,0.394619 -0.476939,0.751836 -0.714844,0.964844 -0.274435,0.245715 -0.514106,0.345703 -0.736328,0.345703 -0.340974,0 -0.752314,-0.400899 -1.148438,-0.705078 0.250796,-0.967725 0.470181,-2.028085 0.523438,-3.146484 0.06436,-1.351672 -0.02113,-2.668872 -0.353516,-3.666016 -0.16619,-0.498572 -0.393421,-0.932137 -0.765625,-1.230469 -0.372204,-0.298331 -0.912571,-0.393726 -1.414062,-0.226562 -0.963454,0.321151 -1.453117,1.247966 -1.558594,2.25 -0.105477,1.002033 0.102661,2.150897 0.496094,3.265625 0.393433,1.114727 0.976796,2.192655 1.685547,3.019531 0.07813,0.09115 0.176172,0.141139 0.257812,0.226562 -0.139282,0.392617 -0.288587,0.750373 -0.43164,0.951172 -0.164837,0.231377 -0.270183,0.261719 -0.291016,0.261719 -0.160614,0 -0.550503,-0.244412 -0.861328,-0.388672 -0.140024,-0.372753 -0.193115,-0.764329 -0.337891,-1.117187 -0.577118,-1.406598 -1.179536,-2.62364 -1.800781,-3.460938 -0.310622,-0.418649 -0.621883,-0.74893 -0.996094,-0.955078 -0.374211,-0.206148 -0.880645,-0.243865 -1.267578,-0.0039 -0.32623,0.202313 -0.52767,0.566036 -0.564453,0.917969 -0.03678,0.351932 0.04524,0.697979 0.181641,1.048828 0.272807,0.701696 0.789872,1.445586 1.416015,2.162109 0.626143,0.716523 1.362491,1.395102 2.091797,1.908203 0.151113,0.106315 0.294304,0.09126 0.44336,0.183594 0.901505,2.463393 1.793219,5.243441 2.205078,7.302734 a 0.50005,0.50005 0 1 0 0.980468,-0.195312 c -0.377081,-1.885405 -1.206946,-4.327477 -1.996093,-6.613282 0.16735,0.03885 0.33823,0.210938 0.505859,0.210938 0.479167,0 0.842571,-0.313408 1.103516,-0.679688 0.161633,-0.226879 0.27273,-0.551284 0.396484,-0.847656 0.463672,0.311378 0.958582,0.527344 1.5,0.527344 0.527778,0 1.006857,-0.243762 1.404297,-0.599609 0.228613,-0.204689 0.402425,-0.518286 0.595703,-0.792969 0.193278,0.274683 0.36709,0.58828 0.595703,0.792969 0.39744,0.355847 0.876519,0.599609 1.404297,0.599609 0.541418,0 1.036328,-0.215966 1.5,-0.527344 0.123754,0.296372 0.234851,0.620777 0.396484,0.847656 0.260945,0.36628 0.624349,0.679688 1.103516,0.679688 0.158799,0 0.330059,-0.162574 0.490234,-0.197266 -0.782691,2.275083 -1.601621,4.705375 -1.980468,6.59961 a 0.50005,0.50005 0 1 0 0.980468,0.195312 c 0.413687,-2.068432 1.289145,-4.827502 2.181641,-7.273437 0.174223,-0.101644 0.335424,-0.08691 0.513672,-0.207031 0.758637,-0.511256 1.5312,-1.188617 2.183594,-1.90625 0.652394,-0.717634 1.186945,-1.463856 1.445312,-2.183594 0.129184,-0.359869 0.195134,-0.72415 0.115235,-1.089844 -0.0799,-0.365694 -0.345228,-0.703864 -0.707032,-0.884766 -0.406525,-0.203262 -0.893885,-0.134157 -1.265625,0.08203 -0.371739,0.216189 -0.687568,0.552404 -1,0.974609 -0.624864,0.84441 -1.223933,2.055422 -1.794922,3.451172 -0.138512,0.338585 -0.188479,0.715504 -0.322265,1.072265 -0.297867,0.128445 -0.689271,0.367188 -0.839844,0.367188 -0.02083,0 -0.126179,-0.03034 -0.291016,-0.261719 -0.143053,-0.200799 -0.292358,-0.558555 -0.43164,-0.951172 0.08164,-0.08542 0.179685,-0.135414 0.257812,-0.226562 0.708751,-0.826876 1.292114,-1.904804 1.685547,-3.019531 0.393433,-1.114728 0.601571,-2.263592 0.496094,-3.265625 -0.105477,-1.002034 -0.59514,-1.928849 -1.558594,-2.25 -0.501491,-0.167164 -1.041858,-0.07177 -1.414062,0.226562 -0.372204,0.298332 -0.599435,0.731897 -0.765625,1.230469 -0.332382,0.997144 -0.417881,2.314344 -0.353516,3.666016 0.05326,1.118399 0.272642,2.178759 0.523438,3.146484 -0.396124,0.304179 -0.807464,0.705078 -1.148438,0.705078 -0.222222,0 -0.461893,-0.09999 -0.736328,-0.345703 -0.237905,-0.213008 -0.482084,-0.570225 -0.714844,-0.964844 0.52507,-1.053264 0.957253,-2.301026 1.19336,-3.599609 0.25787,-1.418291 0.329991,-2.833487 0.125,-3.960938 -0.102496,-0.563725 -0.272533,-1.061702 -0.570313,-1.457031 -0.29778,-0.395329 -0.769097,-0.671875 -1.296875,-0.671875 z m 0,1 c 0.222222,0 0.344655,0.0672 0.5,0.273438 0.155345,0.206233 0.297808,0.567631 0.382812,1.035156 0.170009,0.935049 0.11713,2.269853 -0.125,3.601562 -0.153296,0.84313 -0.477516,1.54784 -0.757812,2.298828 -0.280296,-0.750988 -0.604516,-1.455698 -0.757812,-2.298828 -0.24213,-1.331709 -0.295009,-2.666513 -0.125,-3.601562 0.085,-0.467525 0.227467,-0.828923 0.382812,-1.035156 0.155345,-0.206234 0.277778,-0.273438 0.5,-0.273438 z m -4.841797,1.974609 c 0.248509,-0.08284 0.333142,-0.05323 0.472656,0.05859 0.139515,0.111825 0.310722,0.373572 0.441407,0.765625 0.261368,0.784106 0.363369,2.029406 0.302734,3.302734 -0.04067,0.854013 -0.230927,1.605094 -0.392578,2.375 -0.48785,-0.661813 -0.962175,-1.418869 -1.261719,-2.267578 -0.356567,-1.010272 -0.523429,-2.048908 -0.441406,-2.828125 0.08202,-0.779216 0.34236,-1.227401 0.878906,-1.40625 z m 9.683594,0 c 0.536546,0.178849 0.796883,0.627034 0.878906,1.40625 0.08202,0.779217 -0.08484,1.817853 -0.441406,2.828125 -0.299544,0.848709 -0.773869,1.605765 -1.261719,2.267578 -0.161651,-0.769906 -0.351911,-1.520987 -0.392578,-2.375 -0.06063,-1.273328 0.04137,-2.518628 0.302734,-3.302734 0.130685,-0.392053 0.301892,-0.6538 0.441407,-0.765625 0.139514,-0.111825 0.224147,-0.14143 0.472656,-0.05859 z m -14.578125,3.951172 c 0.08814,-0.05466 0.09487,-0.06242 0.257812,0.02734 0.162941,0.08976 0.412952,0.321547 0.675782,0.675781 0.498125,0.67136 1.055962,1.800181 1.589843,3.074219 -0.435691,-0.369576 -0.885084,-0.72078 -1.265625,-1.15625 -0.575419,-0.658477 -1.035307,-1.352087 -1.236328,-1.869141 -0.10051,-0.258526 -0.128988,-0.467167 -0.117187,-0.580078 0.0118,-0.112911 0.01881,-0.124188 0.0957,-0.171875 z m 19.513672,0.02148 c 0.138196,0.0691 0.154118,0.105928 0.175781,0.205078 0.02166,0.09915 0.0095,0.289556 -0.08008,0.539062 -0.179133,0.499012 -0.644582,1.19029 -1.242188,1.847656 -0.445232,0.489757 -0.9768,0.903927 -1.492187,1.304688 0.539429,-1.302748 1.10746,-2.443887 1.623047,-3.140625 0.265693,-0.359045 0.520177,-0.600955 0.699219,-0.705078 0.179041,-0.104124 0.222931,-0.09752 0.316406,-0.05078 z"
     style="color:#000000;font-style:normal;font-variant:normal;font-weight:normal;font-stretch:normal;font-size:medium;line-height:normal;font-family:sans-serif;text-indent:0;text-align:start;text-decoration:none;text-decoration-line:none;text-decoration-style:solid;text-decoration-color:#000000;letter-spacing:normal;word-spacing:normal;text-transform:none;direction:ltr;block-progression:tb;writing-mode:lr-tb;baseline-shift:baseline;text-anchor:start;white-space:normal;clip-rule:nonzero;display:inline;overflow:visible;visibility:visible;opacity:1;isolation:auto;mix-blend-mode:normal;color-interpolation:sRGB;color-interpolation-filters:linearRGB;solid-color:#000000;solid-opacity:1;fill:#ffd11c;fill-opacity:1;fill-rule:evenodd;stroke:none;stroke-width:1;stroke-linecap:round;stroke-linejoin:round;stroke-miterlimit:4;stroke-dasharray:none;stroke-dashoffset:0;stroke-opacity:1;color-rendering:auto;image-rendering:auto;shape-rendering:auto;text-rendering:auto;enable-background:accumulate" />
  <path
     style="color:#000000;font-style:normal;font-variant:normal;font-weight:normal;font-stretch:normal;font-size:medium;line-height:normal;font-family:sans-serif;text-indent:0;text-align:start;text-decoration:none;text-decoration-line:none;text-decoration-style:solid;text-decoration-color:#000000;letter-spacing:normal;word-spacing:normal;text-transform:none;direction:ltr;block-progression:tb;writing-mode:lr-tb;baseline-shift:baseline;text-anchor:start;white-space:normal;clip-rule:nonzero;display:inline;overflow:visible;visibility:visible;opacity:1;isolation:auto;mix-blend-mode:normal;color-interpolation:sRGB;color-interpolation-filters:linearRGB;solid-color:#000000;solid-opacity:1;fill:#fff01c;fill-opacity:1;fill-rule:evenodd;stroke:none;stroke-width:1;stroke-linecap:round;stroke-linejoin:round;stroke-miterlimit:4;stroke-dasharray:none;stroke-dashoffset:0;stroke-opacity:1;color-rendering:auto;image-rendering:auto;shape-rendering:auto;text-rendering:auto;enable-background:accumulate;filter:url(#filter3788)"
     d="m 32,16.5 c -0.527778,0 -0.999095,0.276546 -1.296875,0.671875 -0.29778,0.395329 -0.467817,0.893306 -0.570313,1.457031 -0.204991,1.127451 -0.13287,2.542647 0.125,3.960938 0.236107,1.298583 0.66829,2.546345 1.19336,3.599609 -0.23276,0.394619 -0.476939,0.751836 -0.714844,0.964844 -0.274435,0.245715 -0.514106,0.345703 -0.736328,0.345703 -0.340974,0 -0.752314,-0.400899 -1.148438,-0.705078 0.250796,-0.967725 0.470181,-2.028085 0.523438,-3.146484 0.06436,-1.351672 -0.02113,-2.668872 -0.353516,-3.666016 -0.16619,-0.498572 -0.393421,-0.932137 -0.765625,-1.230469 -0.372204,-0.298331 -0.912571,-0.393726 -1.414062,-0.226562 -0.963454,0.321151 -1.453117,1.247966 -1.558594,2.25 -0.105477,1.002033 0.102661,2.150897 0.496094,3.265625 0.393433,1.114727 0.976796,2.192655 1.685547,3.019531 0.07813,0.09115 0.176172,0.141139 0.257812,0.226562 -0.139282,0.392617 -0.288587,0.750373 -0.43164,0.951172 -0.164837,0.231377 -0.270183,0.261719 -0.291016,0.261719 -0.160614,0 -0.550503,-0.244412 -0.861328,-0.388672 -0.140024,-0.372753 -0.193115,-0.764329 -0.337891,-1.117187 -0.577118,-1.406598 -1.179536,-2.62364 -1.800781,-3.460938 -0.310622,-0.418649 -0.621883,-0.74893 -0.996094,-0.955078 -0.374211,-0.206148 -0.880645,-0.243865 -1.267578,-0.0039 -0.32623,0.202313 -0.52767,0.566036 -0.564453,0.917969 -0.03678,0.351932 0.04524,0.697979 0.181641,1.048828 0.272807,0.701696 0.789872,1.445586 1.416015,2.162109 0.626143,0.716523 1.362491,1.395102 2.091797,1.908203 0.151113,0.106315 0.294304,0.09126 0.44336,0.183594 0.901505,2.463393 1.793219,5.243441 2.205078,7.302734 a 0.50005,0.50005 0 1 0 0.980468,-0.195312 c -0.377081,-1.885405 -1.206946,-4.327477 -1.996093,-6.613282 0.16735,0.03885 0.33823,0.210938 0.505859,0.210938 0.479167,0 0.842571,-0.313408 1.103516,-0.679688 0.161633,-0.226879 0.27273,-0.551284 0.396484,-0.847656 0.463672,0.311378 0.958582,0.527344 1.5,0.527344 0.527778,0 1.006857,-0.243762 1.404297,-0.599609 0.228613,-0.204689 0.402425,-0.518286 0.595703,-0.792969 0.193278,0.274683 0.36709,0.58828 0.595703,0.792969 0.39744,0.355847 0.876519,0.599609 1.404297,0.599609 0.541418,0 1.036328,-0.215966 1.5,-0.527344 0.123754,0.296372 0.234851,0.620777 0.396484,0.847656 0.260945,0.36628 0.624349,0.679688 1.103516,0.679688 0.158799,0 0.330059,-0.162574 0.490234,-0.197266 -0.782691,2.275083 -1.601621,4.705375 -1.980468,6.59961 a 0.50005,0.50005 0 1 0 0.980468,0.195312 c 0.413687,-2.068432 1.289145,-4.827502 2.181641,-7.273437 0.174223,-0.101644 0.335424,-0.08691 0.513672,-0.207031 0.758637,-0.511256 1.5312,-1.188617 2.183594,-1.90625 0.652394,-0.717634 1.186945,-1.463856 1.445312,-2.183594 0.129184,-0.359869 0.195134,-0.72415 0.115235,-1.089844 -0.0799,-0.365694 -0.345228,-0.703864 -0.707032,-0.884766 -0.406525,-0.203262 -0.893885,-0.134157 -1.265625,0.08203 -0.371739,0.216189 -0.687568,0.552404 -1,0.974609 -0.624864,0.84441 -1.223933,2.055422 -1.794922,3.451172 -0.138512,0.338585 -0.188479,0.715504 -0.322265,1.072265 -0.297867,0.128445 -0.689271,0.367188 -0.839844,0.367188 -0.02083,0 -0.126179,-0.03034 -0.291016,-0.261719 -0.143053,-0.200799 -0.292358,-0.558555 -0.43164,-0.951172 0.08164,-0.08542 0.179685,-0.135414 0.257812,-0.226562 0.708751,-0.826876 1.292114,-1.904804 1.685547,-3.019531 0.393433,-1.114728 0.601571,-2.263592 0.496094,-3.265625 -0.105477,-1.002034 -0.59514,-1.928849 -1.558594,-2.25 -0.501491,-0.167164 -1.041858,-0.07177 -1.414062,0.226562 -0.372204,0.298332 -0.599435,0.731897 -0.765625,1.230469 -0.332382,0.997144 -0.417881,2.314344 -0.353516,3.666016 0.05326,1.118399 0.272642,2.178759 0.523438,3.146484 -0.396124,0.304179 -0.807464,0.705078 -1.148438,0.705078 -0.222222,0 -0.461893,-0.09999 -0.736328,-0.345703 -0.237905,-0.213008 -0.482084,-0.570225 -0.714844,-0.964844 0.52507,-1.053264 0.957253,-2.301026 1.19336,-3.599609 0.25787,-1.418291 0.329991,-2.833487 0.125,-3.960938 -0.102496,-0.563725 -0.272533,-1.061702 -0.570313,-1.457031 -0.29778,-0.395329 -0.769097,-0.671875 -1.296875,-0.671875 z m 0,1 c 0.222222,0 0.344655,0.0672 0.5,0.273438 0.155345,0.206233 0.297808,0.567631 0.382812,1.035156 0.170009,0.935049 0.11713,2.269853 -0.125,3.601562 -0.153296,0.84313 -0.477516,1.54784 -0.757812,2.298828 -0.280296,-0.750988 -0.604516,-1.455698 -0.757812,-2.298828 -0.24213,-1.331709 -0.295009,-2.666513 -0.125,-3.601562 0.085,-0.467525 0.227467,-0.828923 0.382812,-1.035156 0.155345,-0.206234 0.277778,-0.273438 0.5,-0.273438 z m -4.841797,1.974609 c 0.248509,-0.08284 0.333142,-0.05323 0.472656,0.05859 0.139515,0.111825 0.310722,0.373572 0.441407,0.765625 0.261368,0.784106 0.363369,2.029406 0.302734,3.302734 -0.04067,0.854013 -0.230927,1.605094 -0.392578,2.375 -0.48785,-0.661813 -0.962175,-1.418869 -1.261719,-2.267578 -0.356567,-1.010272 -0.523429,-2.048908 -0.441406,-2.828125 0.08202,-0.779216 0.34236,-1.227401 0.878906,-1.40625 z m 9.683594,0 c 0.536546,0.178849 0.796883,0.627034 0.878906,1.40625 0.08202,0.779217 -0.08484,1.817853 -0.441406,2.828125 -0.299544,0.848709 -0.773869,1.605765 -1.261719,2.267578 -0.161651,-0.769906 -0.351911,-1.520987 -0.392578,-2.375 -0.06063,-1.273328 0.04137,-2.518628 0.302734,-3.302734 0.130685,-0.392053 0.301892,-0.6538 0.441407,-0.765625 0.139514,-0.111825 0.224147,-0.14143 0.472656,-0.05859 z m -14.578125,3.951172 c 0.08814,-0.05466 0.09487,-0.06242 0.257812,0.02734 0.162941,0.08976 0.412952,0.321547 0.675782,0.675781 0.498125,0.67136 1.055962,1.800181 1.589843,3.074219 -0.435691,-0.369576 -0.885084,-0.72078 -1.265625,-1.15625 -0.575419,-0.658477 -1.035307,-1.352087 -1.236328,-1.869141 -0.10051,-0.258526 -0.128988,-0.467167 -0.117187,-0.580078 0.0118,-0.112911 0.01881,-0.124188 0.0957,-0.171875 z m 19.513672,0.02148 c 0.138196,0.0691 0.154118,0.105928 0.175781,0.205078 0.02166,0.09915 0.0095,0.289556 -0.08008,0.539062 -0.179133,0.499012 -0.644582,1.19029 -1.242188,1.847656 -0.445232,0.489757 -0.9768,0.903927 -1.492187,1.304688 0.539429,-1.302748 1.10746,-2.443887 1.623047,-3.140625 0.265693,-0.359045 0.520177,-0.600955 0.699219,-0.705078 0.179041,-0.104124 0.222931,-0.09752 0.316406,-0.05078 z"
     id="path3278" />
</svg>
