<?xml version="1.0" encoding="UTF-8" standalone="no"?>
<svg
   xmlns:dc="http://purl.org/dc/elements/1.1/"
   xmlns:cc="http://creativecommons.org/ns#"
   xmlns:rdf="http://www.w3.org/1999/02/22-rdf-syntax-ns#"
   xmlns:svg="http://www.w3.org/2000/svg"
   xmlns="http://www.w3.org/2000/svg"
   height="32"
   width="32"
   viewBox="0 0 32 32"
   id="svg2"
   version="1.1">
  <defs
     id="defs8">
    <filter
       style="color-interpolation-filters:sRGB"
       id="filter3788"
       x="-0.082857005"
       width="1.165714"
       y="-0.09025953"
       height="1.1805191">
      <feGaussianBlur
         stdDeviation="0.75266507"
         id="feGaussianBlur3790" />
    </filter>
  </defs>
  <metadata
     id="metadata4">
    <rdf:RDF>
      <cc:Work
         rdf:about="">
        <dc:format>image/svg+xml</dc:format>
        <dc:type
           rdf:resource="http://purl.org/dc/dcmitype/StillImage" />
        <dc:title></dc:title>
      </cc:Work>
    </rdf:RDF>
  </metadata>
  <circle
     r="16"
     style="opacity:1;fill:#0676b6;fill-opacity:1;stroke:none;stroke-width:3;stroke-linecap:round;stroke-linejoin:round;stroke-miterlimit:4;stroke-dasharray:none;stroke-dashoffset:0;stroke-opacity:1"
     id="path3201"
     cx="16"
     cy="16" />
  <path
     style="color:#000000;font-style:normal;font-variant:normal;font-weight:normal;font-stretch:normal;font-size:medium;line-height:normal;font-family:sans-serif;text-indent:0;text-align:start;text-decoration:none;text-decoration-line:none;text-decoration-style:solid;text-decoration-color:#000000;letter-spacing:normal;word-spacing:normal;text-transform:none;direction:ltr;block-progression:tb;writing-mode:lr-tb;baseline-shift:baseline;text-anchor:start;white-space:normal;clip-rule:nonzero;display:inline;overflow:visible;visibility:visible;opacity:1;isolation:auto;mix-blend-mode:normal;color-interpolation:sRGB;color-interpolation-filters:linearRGB;solid-color:#000000;solid-opacity:1;fill:#ffd11c;fill-opacity:1;fill-rule:evenodd;stroke:none;stroke-width:1;stroke-linecap:round;stroke-linejoin:round;stroke-miterlimit:4;stroke-dasharray:none;stroke-dashoffset:0;stroke-opacity:1;color-rendering:auto;image-rendering:auto;shape-rendering:auto;text-rendering:auto;enable-background:accumulate"
     d="m 15.992521,4.7839192 c -0.589683,0 -1.116281,0.3089828 -1.448989,0.750681 -0.332707,0.4416981 -0.522688,0.9980842 -0.637207,1.62793 -0.229035,1.2596926 -0.148455,2.8408818 0.139662,4.4255278 0.263801,1.450897 0.746676,2.845012 1.333332,4.021816 -0.260061,0.440905 -0.53288,0.840022 -0.79869,1.078014 -0.306624,0.274536 -0.574406,0.386252 -0.822693,0.386252 -0.380968,0 -0.840555,-0.447922 -1.283141,-0.787779 0.280212,-1.081232 0.525329,-2.265965 0.584833,-3.515544 0.0719,-1.510213 -0.02361,-2.9819108 -0.394981,-4.0960134 -0.185683,-0.5570508 -0.439567,-1.0414697 -0.855427,-1.3747939 -0.415861,-0.3333231 -1.019609,-0.4399072 -1.579921,-0.253136 -1.0764608,0.3588196 -1.6235573,1.3943431 -1.7414059,2.5139092 -0.1178487,1.1195641 0.1147024,2.4031811 0.5542817,3.6486591 0.4395803,1.245476 1.0913672,2.449837 1.8832492,3.373699 0.0873,0.101842 0.196836,0.157694 0.288052,0.253137 -0.155619,0.438668 -0.322436,0.838386 -0.482269,1.062737 -0.18417,0.258516 -0.301873,0.292417 -0.325149,0.292417 -0.179453,0 -0.6150732,-0.27308 -0.9623557,-0.434261 -0.1564482,-0.416473 -0.2157664,-0.853979 -0.3775236,-1.248224 -0.6448092,-1.571582 -1.3178864,-2.931374 -2.0119989,-3.866881 -0.3470556,-0.467753 -0.6948253,-0.836774 -1.1129285,-1.067101 -0.4181032,-0.230328 -0.9839381,-0.272469 -1.4162556,-0.0043 -0.3644944,0.226043 -0.5895617,0.632428 -0.6306591,1.02564 -0.041094,0.393211 0.050546,0.779847 0.2029461,1.171848 0.3048053,0.784 0.8825182,1.615143 1.5821031,2.415709 0.6995851,0.800565 1.5223012,1.558737 2.3371494,2.132021 0.1688375,0.118785 0.3288237,0.101964 0.4953629,0.205128 1.0072449,2.752331 2.0035509,5.858458 2.4637169,8.159291 a 0.55870219,0.55870219 0 1 0 1.09547,-0.21822 c -0.42131,-2.10655 -1.348512,-4.835059 -2.2302198,-7.388972 0.1869788,0.0434 0.3779018,0.23568 0.5651928,0.23568 0.535369,0 0.941398,-0.350169 1.23295,-0.759411 0.180592,-0.25349 0.304719,-0.615946 0.442988,-0.94708 0.518058,0.347901 1.071017,0.589198 1.67594,0.589198 0.589683,0 1.124954,-0.272353 1.569011,-0.669939 0.255427,-0.228697 0.449626,-0.579077 0.665574,-0.885979 0.215948,0.306902 0.410147,0.657282 0.665575,0.885979 0.444056,0.397586 0.979328,0.669939 1.56901,0.669939 0.604922,0 1.157882,-0.241297 1.675939,-0.589198 0.138269,0.331134 0.262398,0.69359 0.442989,0.94708 0.291551,0.409242 0.69758,0.759411 1.23295,0.759411 0.177425,0 0.368773,-0.181643 0.547735,-0.220405 -0.874495,2.541934 -1.789479,5.257281 -2.212763,7.373697 a 0.55870219,0.55870219 0 1 0 1.09547,0.21822 c 0.46221,-2.311044 1.440352,-5.393732 2.437532,-8.126558 0.194658,-0.113566 0.374767,-0.0971 0.573922,-0.231314 0.847619,-0.571222 1.710798,-1.328033 2.439713,-2.129839 0.728915,-0.801807 1.326165,-1.635556 1.614837,-2.439714 0.144336,-0.402079 0.218021,-0.809087 0.128751,-1.217674 -0.08927,-0.408588 -0.38572,-0.786423 -0.789962,-0.988543 -0.454207,-0.227103 -0.998731,-0.149893 -1.414073,0.09165 -0.415342,0.241546 -0.768215,0.617197 -1.117293,1.088924 -0.698156,0.943453 -1.367491,2.296507 -2.005453,3.855968 -0.154758,0.378299 -0.210586,0.799428 -0.360065,1.198035 -0.332804,0.14351 -0.770117,0.410256 -0.938351,0.410256 -0.02328,0 -0.140979,-0.0339 -0.32515,-0.292417 -0.159832,-0.224351 -0.32665,-0.624069 -0.482268,-1.062737 0.09121,-0.09544 0.200761,-0.151298 0.288051,-0.253137 0.791883,-0.923862 1.44367,-2.128223 1.88325,-3.373699 0.439579,-1.245477 0.67213,-2.529095 0.554282,-3.648659 -0.117849,-1.1195661 -0.664945,-2.1550897 -1.741405,-2.5139094 -0.560313,-0.1867711 -1.164061,-0.080188 -1.579922,0.2531362 -0.415861,0.333324 -0.669744,0.817743 -0.855427,1.3747939 -0.371368,1.1141025 -0.466896,2.5858003 -0.394981,4.0960133 0.05951,1.249579 0.304621,2.434311 0.584834,3.515543 -0.442587,0.339858 -0.902174,0.787779 -1.283142,0.787779 -0.248286,0 -0.516069,-0.111718 -0.822694,-0.386252 -0.26581,-0.237992 -0.538629,-0.637108 -0.79869,-1.078012 0.586657,-1.176804 1.069533,-2.570919 1.333333,-4.021817 0.288116,-1.584646 0.368696,-3.1658351 0.139661,-4.4255278 -0.114517,-0.6298458 -0.304499,-1.1862318 -0.637206,-1.62793 -0.332707,-0.4416982 -0.859307,-0.750681 -1.448989,-0.750681 z m 0,1.1172926 c 0.248287,0 0.38508,0.075082 0.558646,0.3055103 0.173566,0.2304226 0.332739,0.6342099 0.427713,1.1565721 0.18995,1.0447234 0.130868,2.536091 -0.139661,4.0239998 -0.171277,0.942022 -0.533525,1.72939 -0.846698,2.568463 -0.313173,-0.839073 -0.675421,-1.626441 -0.846698,-2.568463 -0.27053,-1.4879088 -0.329611,-2.9792764 -0.139662,-4.0239998 0.09497,-0.5223622 0.254148,-0.9261495 0.427714,-1.1565721 0.173565,-0.2304238 0.310359,-0.3055103 0.558646,-0.3055103 z m -5.409704,2.2062162 c 0.277657,-0.092557 0.372217,-0.059474 0.528095,0.065462 0.155879,0.1249413 0.347167,0.4173893 0.493181,0.8554276 0.292025,0.8760763 0.405989,2.2674408 0.338242,3.6901208 -0.04544,0.954182 -0.258013,1.79336 -0.438625,2.65357 -0.545071,-0.739438 -1.07503,-1.585291 -1.409709,-2.533548 -0.3983895,-1.128769 -0.5848231,-2.28923 -0.4931794,-3.1598433 0.09164,-0.8706132 0.3825163,-1.3713671 0.9819954,-1.5711937 z m 10.819408,0 c 0.599479,0.1998266 0.890352,0.7005804 0.981995,1.5711935 0.09164,0.8706135 -0.09479,2.0310735 -0.49318,3.1598435 -0.334677,0.948257 -0.864638,1.79411 -1.409709,2.533548 -0.180612,-0.86021 -0.393187,-1.699387 -0.438625,-2.65357 -0.06774,-1.42268 0.04622,-2.8140445 0.338244,-3.6901208 0.146013,-0.4380384 0.337301,-0.7304864 0.49318,-0.8554276 0.155878,-0.1249413 0.250438,-0.1580188 0.528095,-0.065463 z m -16.2880317,4.414616 c 0.098478,-0.06107 0.1059975,-0.06974 0.2880515,0.03055 0.1820528,0.100288 0.4613881,0.359262 0.7550462,0.755045 0.5565514,0.750106 1.1798186,2.011329 1.7763199,3.434802 -0.4867944,-0.412924 -0.9888978,-0.805322 -1.4140735,-1.291869 -0.6429114,-0.735712 -1.1567409,-1.510678 -1.3813402,-2.088378 -0.1122991,-0.288849 -0.1441173,-0.521962 -0.1309321,-0.648117 0.013184,-0.126154 0.021016,-0.138754 0.1069248,-0.192035 z m 21.8024817,0.024 c 0.154406,0.0772 0.172196,0.118353 0.1964,0.229133 0.0242,0.110779 0.01061,0.323518 -0.08947,0.60229 -0.200145,0.557542 -0.720187,1.329902 -1.387888,2.064372 -0.497454,0.547202 -1.091371,1.009951 -1.66721,1.457719 0.6027,-1.455552 1.237358,-2.730538 1.813419,-3.508998 0.296856,-0.401158 0.58119,-0.671442 0.781232,-0.787778 0.200041,-0.116337 0.249079,-0.108959 0.353518,-0.05674 z"
     id="path3272" />
</svg>
